<svg xmlns="http://www.w3.org/2000/svg" viewBox="0 0 1200 630" fill="none">
  <rect width="1200" height="630" fill="#0a0a0a"/>
  <!-- Subtle gradient accent -->
  <circle cx="900" cy="315" r="400" fill="#3b82f6" opacity="0.04"/>
  <!-- Hammer icon (centered, large) -->
  <g transform="translate(520, 180) scale(4)">
    <path d="m15 12-9.373 9.373a1 1 0 0 1-3.001-3L12 9" stroke="#3b82f6" stroke-width="2" stroke-linecap="round" stroke-linejoin="round"/>
    <path d="m18 15 4-4" stroke="#3b82f6" stroke-width="2" stroke-linecap="round" stroke-linejoin="round"/>
    <path d="m21.5 11.5-1.914-1.914A2 2 0 0 1 19 8.172v-.344a2 2 0 0 0-.586-1.414l-1.657-1.657A6 6 0 0 0 12.516 3H9l1.243 1.243A6 6 0 0 1 12 8.485V10l2 2h1.172a2 2 0 0 1 1.414.586L18.5 14.5" stroke="#3b82f6" stroke-width="2" stroke-linecap="round" stroke-linejoin="round"/>
  </g>
  <!-- Wordmark -->
  <text x="600" y="420" text-anchor="middle" font-family="Geist, system-ui, sans-serif" font-size="64" font-weight="700" letter-spacing="-0.03em">
    <tspan fill="#e4e4e7">Iron</tspan><tspan fill="#3b82f6">W</tspan><tspan fill="#e4e4e7">orks</tspan>
  </text>
  <!-- Tagline -->
  <text x="600" y="475" text-anchor="middle" font-family="Geist, system-ui, sans-serif" font-size="24" fill="#71717a" font-weight="400">
    Your AI Workforce, Managed
  </text>
  <!-- Steel Motion attribution -->
  <text x="600" y="580" text-anchor="middle" font-family="Geist, system-ui, sans-serif" font-size="14" fill="#3f3f46">
    Steel Motion LLC
  </text>
</svg>
