<svg xmlns="http://www.w3.org/2000/svg" viewBox="0 0 240 48" fill="none">
  <!-- IronWorks Logo — Hammer icon + wordmark -->
  <g transform="translate(4, 4)">
    <!-- Hammer icon -->
    <path d="m15 12-9.373 9.373a1 1 0 0 1-3.001-3L12 9" stroke="#3b82f6" stroke-width="2" stroke-linecap="round" stroke-linejoin="round"/>
    <path d="m18 15 4-4" stroke="#3b82f6" stroke-width="2" stroke-linecap="round" stroke-linejoin="round"/>
    <path d="m21.5 11.5-1.914-1.914A2 2 0 0 1 19 8.172v-.344a2 2 0 0 0-.586-1.414l-1.657-1.657A6 6 0 0 0 12.516 3H9l1.243 1.243A6 6 0 0 1 12 8.485V10l2 2h1.172a2 2 0 0 1 1.414.586L18.5 14.5" stroke="#3b82f6" stroke-width="2" stroke-linecap="round" stroke-linejoin="round"/>
  </g>
  <!-- Wordmark -->
  <text x="48" y="33" font-family="Geist, system-ui, -apple-system, sans-serif" font-size="26" font-weight="600" letter-spacing="-0.02em">
    <tspan fill="#e4e4e7">Iron</tspan><tspan fill="#3b82f6">W</tspan><tspan fill="#e4e4e7">orks</tspan>
  </text>
</svg>
